<?xml version="1.0" encoding="UTF-8" standalone="no"?>
<svg width="28px" height="28px" viewBox="0 0 28 28" version="1.1" xmlns="http://www.w3.org/2000/svg" xmlns:xlink="http://www.w3.org/1999/xlink" xmlns:sketch="http://www.bohemiancoding.com/sketch/ns">
    <!-- Generator: Sketch 3.4.4 (17249) - http://www.bohemiancoding.com/sketch -->
    <title>in_review</title>
    <desc>Created with Sketch.</desc>
    <defs></defs>
    <g id="Guidelines" stroke="none" stroke-width="1" fill="none" fill-rule="evenodd" sketch:type="MSPage">
        <g id="Icons" sketch:type="MSArtboardGroup" transform="translate(-707.000000, -405.000000)">
            <g sketch:type="MSLayerGroup" transform="translate(60.000000, 60.000000)" id="in-review">
                <g transform="translate(646.000000, 344.000000)" sketch:type="MSShapeGroup">
                    <g id="in_review" transform="translate(0.500000, 0.500000)">
                        <rect id="bg" fill="#C3C4CF" x="0.5" y="0.5" width="28" height="28" rx="40"></rect>
                        <g id="Shape-+-Shape" transform="translate(5.000000, 5.000000)" fill="#FFFFFF">
                            <path d="M9.491,0.5 C4.523,0.5 0.5,4.532 0.5,9.5 C0.5,14.468 4.523,18.5 9.491,18.5 C14.468,18.5 18.5,14.468 18.5,9.5 C18.5,4.532 14.468,0.5 9.491,0.5 L9.491,0.5 Z M9.5,16.7 C5.522,16.7 2.3,13.478 2.3,9.5 C2.3,5.522 5.522,2.3 9.5,2.3 C13.478,2.3 16.7,5.522 16.7,9.5 C16.7,13.478 13.478,16.7 9.5,16.7 L9.5,16.7 Z" id="Shape"></path>
                            <path d="M9.9375,5.125 L8.625,5.125 L8.625,10.375 L13.21875,13.13125 L13.875,12.055 L9.9375,9.71875 L9.9375,5.125 Z" id="Shape"></path>
                        </g>
                    </g>
                </g>
            </g>
        </g>
    </g>
</svg>