<?xml version="1.0" encoding="UTF-8" standalone="no"?>
<svg width="22px" height="15px" viewBox="0 0 22 15" version="1.1" xmlns="http://www.w3.org/2000/svg" xmlns:xlink="http://www.w3.org/1999/xlink" xmlns:sketch="http://www.bohemiancoding.com/sketch/ns">
    <!-- Generator: Sketch 3.4.4 (17249) - http://www.bohemiancoding.com/sketch -->
    <title>watchlist</title>
    <desc>Created with Sketch.</desc>
    <defs></defs>
    <g id="Guidelines" stroke="none" stroke-width="1" fill="none" fill-rule="evenodd" sketch:type="MSPage">
        <g id="Icons" sketch:type="MSArtboardGroup" transform="translate(-1032.000000, -465.000000)" fill="#D5DFFF" opacity="0.6">
            <g sketch:type="MSLayerGroup" transform="translate(60.000000, 60.000000)" id="watchlist">
                <g transform="translate(972.000000, 403.000000)" sketch:type="MSShapeGroup">
                    <path d="M11,2 C6,2 1.73,5.11 0,9.5 C1.73,13.89 6,17 11,17 C16,17 20.27,13.89 22,9.5 C20.27,5.11 16,2 11,2 L11,2 Z M11,14.5 C8.24,14.5 6,12.26 6,9.5 C6,6.74 8.24,4.5 11,4.5 C13.76,4.5 16,6.74 16,9.5 C16,12.26 13.76,14.5 11,14.5 L11,14.5 Z M11,6.5 C9.34,6.5 8,7.84 8,9.5 C8,11.16 9.34,12.5 11,12.5 C12.66,12.5 14,11.16 14,9.5 C14,7.84 12.66,6.5 11,6.5 L11,6.5 Z"></path>
                </g>
            </g>
        </g>
    </g>
</svg>