<?xml version="1.0" encoding="UTF-8" standalone="no"?>
<svg width="12px" height="14px" viewBox="0 0 12 14" version="1.1" xmlns="http://www.w3.org/2000/svg" xmlns:xlink="http://www.w3.org/1999/xlink" xmlns:sketch="http://www.bohemiancoding.com/sketch/ns">
    <!-- Generator: Sketch 3.4.4 (17249) - http://www.bohemiancoding.com/sketch -->
    <title>calendar</title>
    <desc>Created with Sketch.</desc>
    <defs></defs>
    <g id="Guidelines" stroke="none" stroke-width="1" fill="none" fill-rule="evenodd" sketch:type="MSPage">
        <g id="Icons" sketch:type="MSArtboardGroup" transform="translate(-1042.000000, -302.000000)" fill="#AAABBB">
            <g sketch:type="MSLayerGroup" transform="translate(60.000000, 60.000000)" id="calendar">
                <g transform="translate(982.000000, 239.000000)" sketch:type="MSShapeGroup">
                    <path d="M10.6666667,4.33333333 L10,4.33333333 L10,3 L8.66666667,3 L8.66666667,4.33333333 L3.33333333,4.33333333 L3.33333333,3 L2,3 L2,4.33333333 L1.33333333,4.33333333 C0.6,4.33333333 0,4.93333333 0,5.66666667 L0,15 C0,15.7333333 0.6,16.3333333 1.33333333,16.3333333 L10.6666667,16.3333333 C11.4,16.3333333 12,15.7333333 12,15 L12,5.66666667 C12,4.93333333 11.4,4.33333333 10.6666667,4.33333333 L10.6666667,4.33333333 Z M10.6666667,15 L1.33333333,15 L1.33333333,7.66666667 L10.6666667,7.66666667 L10.6666667,15 L10.6666667,15 Z"></path>
                </g>
            </g>
        </g>
    </g>
</svg>