<?xml version="1.0" encoding="UTF-8" standalone="no"?>
<svg width="28px" height="28px" viewBox="0 0 28 28" version="1.1" xmlns="http://www.w3.org/2000/svg" xmlns:xlink="http://www.w3.org/1999/xlink" xmlns:sketch="http://www.bohemiancoding.com/sketch/ns">
    <!-- Generator: Sketch 3.4.4 (17249) - http://www.bohemiancoding.com/sketch -->
    <title>error</title>
    <desc>Created with Sketch.</desc>
    <defs></defs>
    <g id="Guidelines" stroke="none" stroke-width="1" fill="none" fill-rule="evenodd" sketch:type="MSPage">
        <g id="Icons" sketch:type="MSArtboardGroup" transform="translate(-707.000000, -188.000000)">
            <g sketch:type="MSLayerGroup" transform="translate(60.000000, 60.000000)" id="confirmation/error-+-Rectangle-127-Copy-5-+-ic_file_upload_black_24px-Copy-Copy-Copy-Copy-Copy-Copy-+-exclamation">
                <g transform="translate(603.000000, 128.000000)" sketch:type="MSShapeGroup">
                    <g id="error" transform="translate(44.000000, 0.000000)">
                        <path d="M14,28 C6.28056704,28 0,21.719433 0,14 C0,6.28056704 6.28056704,0 14,0 C21.719433,0 28,6.28056704 28,14 C28,21.719433 21.719433,28 14,28 L14,28 Z" id="Fill-49" stroke="#FB467B" fill="#FFFFFF"></path>
                        <g id="Fill-50-+-Fill-51" transform="translate(13.000000, 6.000000)">
                            <path d="M0.181411765,13.7647059 L1.82352941,13.7647059 L1.82352941,15.4117647 L0.181411765,15.4117647 L0.181411765,13.7647059 Z" id="Fill-50" fill="#FF6666"></path>
                            <path d="M1.49411765,12.1176471 L0.505882353,12.1176471 L0.176470588,5.52941176 L0.176470588,0.588235294 L1.82352941,0.588235294 L1.82352941,5.52941176 L1.49411765,12.1176471" id="Fill-51" fill="#FB467B"></path>
                        </g>
                    </g>
                </g>
            </g>
        </g>
    </g>
</svg>