<?xml version="1.0" encoding="UTF-8" standalone="no"?>
<svg width="12px" height="12px" viewBox="0 0 12 12" version="1.1" xmlns="http://www.w3.org/2000/svg" xmlns:xlink="http://www.w3.org/1999/xlink" xmlns:sketch="http://www.bohemiancoding.com/sketch/ns">
    <!-- Generator: Sketch 3.4.4 (17249) - http://www.bohemiancoding.com/sketch -->
    <title>help_modal</title>
    <desc>Created with Sketch.</desc>
    <defs></defs>
    <g id="Guidelines" stroke="none" stroke-width="1" fill="none" fill-rule="evenodd" sketch:type="MSPage">
        <g id="Icons" sketch:type="MSArtboardGroup" transform="translate(-94.000000, -302.000000)">
            <g sketch:type="MSLayerGroup" transform="translate(60.000000, 60.000000)" id="question">
                <g transform="translate(34.000000, 239.000000)" sketch:type="MSShapeGroup">
                    <g id="help_modal" transform="translate(0.000000, 3.000000)">
                        <path d="M6,11.9752941 C2.70529412,11.9752941 0.0247058824,9.29470588 0.0247058824,6 C0.0247058824,2.70529412 2.70529412,0.0247058824 6,0.0247058824 C9.29470588,0.0247058824 11.9752941,2.70529412 11.9752941,6 C11.9752941,9.29470588 9.29470588,11.9752941 6,11.9752941 L6,11.9752941 Z" id="Fill-47" fill="#9F88DC"></path>
                        <path d="M4.16258824,4.11070588 C4.25435294,3.84458824 4.39023529,3.61835294 4.57094118,3.43164706 C4.75129412,3.24494118 4.97011765,3.09988235 5.22705882,2.99576471 C5.484,2.89164706 5.77764706,2.83976471 6.108,2.83976471 C6.36494118,2.83976471 6.60494118,2.87788235 6.82835294,2.95447059 C7.05176471,3.03105882 7.24905882,3.14258824 7.42023529,3.28941176 C7.59141176,3.43623529 7.72623529,3.61376471 7.824,3.82164706 C7.92176471,4.02952941 7.97082353,4.26847059 7.97082353,4.53741176 C7.97082353,4.88011765 7.896,5.17058824 7.746,5.40917647 C7.596,5.64776471 7.40470588,5.87717647 7.17247059,6.09741176 C6.98294118,6.28694118 6.83117647,6.43552941 6.71823529,6.54247059 C6.60494118,6.64976471 6.52094118,6.75529412 6.46588235,6.85905882 C6.41082353,6.96282353 6.37411765,7.09023529 6.35576471,7.23988235 C6.33741176,7.38988235 6.32505882,7.48341176 6.31905882,7.76470588 L5.74094118,7.76470588 C5.73494118,7.48341176 5.75011765,7.37011765 5.78682353,7.18023529 C5.82352941,6.99070588 5.88317647,6.81917647 5.96576471,6.66635294 C6.04835294,6.51352941 6.15847059,6.36670588 6.29611765,6.22588235 C6.43376471,6.08505882 6.60035294,5.92623529 6.79623529,5.74870588 C6.96741176,5.58988235 7.10964706,5.41235294 7.22294118,5.21647059 C7.33623529,5.02094118 7.39270588,4.80352941 7.39270588,4.56494118 C7.39270588,4.38141176 7.35741176,4.21341176 7.28717647,4.06023529 C7.21694118,3.90741176 7.122,3.77717647 7.00270588,3.67023529 C6.88341176,3.56329412 6.744,3.47894118 6.58517647,3.41788235 C6.426,3.35682353 6.25764706,3.32611765 6.08047059,3.32611765 C5.83588235,3.32611765 5.61847059,3.36917647 5.42894118,3.45458824 C5.23941176,3.54035294 5.08305882,3.65788235 4.96094118,3.80788235 C4.83847059,3.95788235 4.74670588,4.13364706 4.68564706,4.33552941 C4.62423529,4.53741176 4.59670588,4.70258824 4.60305882,4.94117647 L4.02494118,4.94117647 C4.02494118,4.61682353 4.07082353,4.37682353 4.16258824,4.11070588 L4.16258824,4.11070588 Z M5.64917647,8.47058824 L6.35294118,8.47058824 L6.35294118,9.17647059 L5.64917647,9.17647059 L5.64917647,8.47058824 Z" id="Fill-48" stroke="#FFFFFF" stroke-width="0.2" fill="#FFFFFF"></path>
                    </g>
                </g>
            </g>
        </g>
    </g>
</svg>