<?xml version="1.0" encoding="UTF-8" standalone="no"?>
<svg width="10px" height="19px" viewBox="0 0 10 19" version="1.1" xmlns="http://www.w3.org/2000/svg" xmlns:xlink="http://www.w3.org/1999/xlink" xmlns:sketch="http://www.bohemiancoding.com/sketch/ns">
    <!-- Generator: Sketch 3.4.4 (17249) - http://www.bohemiancoding.com/sketch -->
    <title>dollar</title>
    <desc>Created with Sketch.</desc>
    <defs></defs>
    <g id="Guidelines" stroke="none" stroke-width="1" fill="none" fill-rule="evenodd" sketch:type="MSPage">
        <g id="Icons" sketch:type="MSArtboardGroup" transform="translate(-1044.000000, -354.000000)" fill="#15151D" opacity="0.2">
            <g sketch:type="MSLayerGroup" transform="translate(60.000000, 60.000000)" id="symbols">
                <g transform="translate(945.000000, 294.000000)" sketch:type="MSShapeGroup">
                    <path d="M48.86,11.98 C48.86,9.28 46.56,8.72 44.36,8.26 L44.36,2.82 C46.08,2.9 47.38,3.64 47.54,5.74 L48.68,5.74 C48.6,3.32 46.9,1.98 44.36,1.84 L44.36,0 L43.56,0 L43.56,1.84 C41.44,1.96 39.3,3.2 39.3,5.56 C39.3,8.24 41.44,8.82 43.56,9.24 L43.56,14.96 C41.46,14.84 40.28,13.62 40.18,11.86 L39,11.86 C39.22,14.76 41.36,15.88 43.56,15.96 L43.56,18.02 L44.36,18.02 L44.36,15.96 C47.4,15.84 48.86,14.14 48.86,11.98 L48.86,11.98 Z M46.38,9.96 C47.22,10.36 47.7,10.94 47.7,12.1 C47.7,14.22 45.88,14.94 44.36,14.96 L44.36,9.4 C45.08,9.56 45.8,9.7 46.38,9.96 L46.38,9.96 Z M40.46,5.58 C40.46,4.06 41.68,2.92 43.56,2.82 L43.56,8.1 C41.84,7.76 40.46,7.3 40.46,5.58 L40.46,5.58 Z" id="dollar"></path>
                </g>
            </g>
        </g>
    </g>
</svg>