<?xml version="1.0" encoding="UTF-8" standalone="no"?>
<svg width="28px" height="28px" viewBox="0 0 28 28" version="1.1" xmlns="http://www.w3.org/2000/svg" xmlns:xlink="http://www.w3.org/1999/xlink" xmlns:sketch="http://www.bohemiancoding.com/sketch/ns">
    <!-- Generator: Sketch 3.4.4 (17249) - http://www.bohemiancoding.com/sketch -->
    <title>help_filled</title>
    <desc>Created with Sketch.</desc>
    <defs></defs>
    <g id="Guidelines" stroke="none" stroke-width="1" fill="none" fill-rule="evenodd" sketch:type="MSPage">
        <g id="Icons" sketch:type="MSArtboardGroup" transform="translate(-663.000000, -242.000000)">
            <g sketch:type="MSLayerGroup" transform="translate(60.000000, 60.000000)" id="help">
                <g transform="translate(603.000000, 182.000000)" sketch:type="MSShapeGroup">
                    <g id="help_filled">
                        <path d="M14,28 C6.28056704,28 0,21.719433 0,14 C0,6.28056704 6.28056704,0 14,0 C21.719433,0 28,6.28056704 28,14 C28,21.719433 21.719433,28 14,28 L14,28 Z" id="Fill-47" fill="#C3C4CF"></path>
                        <path d="M9.71270588,9.59164706 C9.92682353,8.97070588 10.2438824,8.44282353 10.6655294,8.00717647 C11.0863529,7.57152941 11.5969412,7.23305882 12.1964706,6.99011765 C12.796,6.74717647 13.4811765,6.62611765 14.252,6.62611765 C14.8515294,6.62611765 15.4115294,6.71505882 15.9328235,6.89376471 C16.4541176,7.07247059 16.9144706,7.33270588 17.3138824,7.67529412 C17.7132941,8.01788235 18.0278824,8.43211765 18.256,8.91717647 C18.4841176,9.40223529 18.5985882,9.95976471 18.5985882,10.5872941 C18.5985882,11.3869412 18.424,12.0647059 18.074,12.6214118 C17.724,13.1781176 17.2776471,13.7134118 16.7357647,14.2272941 C16.2935294,14.6695294 15.9394118,15.0162353 15.6758824,15.2657647 C15.4115294,15.5161176 15.2155294,15.7623529 15.0870588,16.0044706 C14.9585882,16.2465882 14.8729412,16.5438824 14.8301176,16.8930588 C14.7872941,17.2430588 14.7584706,17.4612941 14.7444706,18.1176471 L13.3955294,18.1176471 C13.3815294,17.4612941 13.4169412,17.1969412 13.5025882,16.7538824 C13.5882353,16.3116471 13.7274118,15.9114118 13.9201176,15.5548235 C14.1128235,15.1982353 14.3697647,14.8556471 14.6909412,14.5270588 C15.0121176,14.1984706 15.4008235,13.8278824 15.8578824,13.4136471 C16.2572941,13.0430588 16.5891765,12.6288235 16.8535294,12.1717647 C17.1178824,11.7155294 17.2496471,11.2082353 17.2496471,10.6515294 C17.2496471,10.2232941 17.1672941,9.83129412 17.0034118,9.47388235 C16.8395294,9.11729412 16.618,8.81341176 16.3396471,8.56388235 C16.0612941,8.31435294 15.736,8.11752941 15.3654118,7.97505882 C14.994,7.83258824 14.6011765,7.76094118 14.1877647,7.76094118 C13.6170588,7.76094118 13.1097647,7.86141176 12.6675294,8.06070588 C12.2252941,8.26082353 11.8604706,8.53505882 11.5755294,8.88505882 C11.2897647,9.23505882 11.0756471,9.64517647 10.9331765,10.1162353 C10.7898824,10.5872941 10.7256471,10.9727059 10.7404706,11.5294118 L9.39152941,11.5294118 C9.39152941,10.7725882 9.49858824,10.2125882 9.71270588,9.59164706 L9.71270588,9.59164706 Z M13.1814118,19.7647059 L14.8235294,19.7647059 L14.8235294,21.4117647 L13.1814118,21.4117647 L13.1814118,19.7647059 Z" id="Fill-48" fill="#FFFFFF"></path>
                    </g>
                </g>
            </g>
        </g>
    </g>
</svg>