<?xml version="1.0" encoding="UTF-8" standalone="no"?>
<svg width="12px" height="12px" viewBox="0 0 12 12" version="1.1" xmlns="http://www.w3.org/2000/svg" xmlns:xlink="http://www.w3.org/1999/xlink" xmlns:sketch="http://www.bohemiancoding.com/sketch/ns">
    <!-- Generator: Sketch 3.4.4 (17249) - http://www.bohemiancoding.com/sketch -->
    <title>external-link</title>
    <desc>Created with Sketch.</desc>
    <defs></defs>
    <g id="Guidelines" stroke="none" stroke-width="1" fill="none" fill-rule="evenodd" sketch:type="MSPage">
        <g id="Icons" sketch:type="MSArtboardGroup" transform="translate(-94.000000, -142.000000)" fill="#9F88DC">
            <g sketch:type="MSLayerGroup" transform="translate(60.000000, 60.000000)" id="external-link">
                <g transform="translate(34.000000, 79.000000)" sketch:type="MSShapeGroup">
                    <g transform="translate(0.000000, 3.000000)">
                        <path d="M5.42442857,7.13914286 L4.86128571,6.57514286 L11.2898571,0.146571429 L11.853,0.710571429 L5.42442857,7.13914286" id="Fill-118"></path>
                        <path d="M12,4.28571429 L11.1428571,4.28571429 L11.1428571,0.857142857 L7.71428571,0.857142857 L7.71428571,0 L12,0 L12,4.28571429" id="Fill-119"></path>
                        <path d="M9.85714286,12 L1.28571429,12 C0.576857143,12 0,11.4231429 0,10.7142857 L0,2.14285714 C0,1.434 0.576857143,0.857142857 1.28571429,0.857142857 L6,0.857142857 L6,1.71428571 L1.28571429,1.71428571 C1.04914286,1.71428571 0.857142857,1.90671429 0.857142857,2.14285714 L0.857142857,10.7142857 C0.857142857,10.9504286 1.04914286,11.1428571 1.28571429,11.1428571 L9.85714286,11.1428571 C10.0937143,11.1428571 10.2857143,10.9504286 10.2857143,10.7142857 L10.2857143,6 L11.1428571,6 L11.1428571,10.7142857 C11.1428571,11.4231429 10.566,12 9.85714286,12" id="Fill-120"></path>
                    </g>
                </g>
            </g>
        </g>
    </g>
</svg>