<?xml version="1.0" encoding="UTF-8" standalone="no"?>
<svg width="14px" height="15px" viewBox="0 0 14 15" version="1.1" xmlns="http://www.w3.org/2000/svg" xmlns:xlink="http://www.w3.org/1999/xlink" xmlns:sketch="http://www.bohemiancoding.com/sketch/ns">
    <!-- Generator: Sketch 3.4.4 (17249) - http://www.bohemiancoding.com/sketch -->
    <title>percent</title>
    <desc>Created with Sketch.</desc>
    <defs></defs>
    <g id="Guidelines" stroke="none" stroke-width="1" fill="none" fill-rule="evenodd" sketch:type="MSPage">
        <g id="Icons" sketch:type="MSArtboardGroup" transform="translate(-1005.000000, -356.000000)" fill="#15151D" opacity="0.2">
            <g sketch:type="MSLayerGroup" transform="translate(60.000000, 60.000000)" id="symbols">
                <g transform="translate(945.000000, 294.000000)" sketch:type="MSShapeGroup">
                    <path d="M13.5,2 L12.2,2 L0.68,15.94 L1.96,15.94 L13.5,2 Z M0,5.54 C0,8.62 2.06,9.08 3.06,9.08 C4.04,9.08 6.1,8.62 6.1,5.54 C6.1,2.46 4.04,2 3.06,2 C2.06,2 0,2.46 0,5.54 L0,5.54 Z M5.02,5.54 C5.02,7.34 4.26,8.16 3.06,8.16 C1.86,8.16 1.06,7.34 1.06,5.54 C1.06,3.76 1.86,2.94 3.06,2.94 C4.26,2.94 5.02,3.76 5.02,5.54 L5.02,5.54 Z M7.82,12.54 C7.82,15.62 9.88,16.08 10.88,16.08 C11.86,16.08 13.92,15.62 13.92,12.54 C13.92,9.46 11.86,9 10.88,9 C9.88,9 7.82,9.46 7.82,12.54 L7.82,12.54 Z M12.86,12.54 C12.86,14.34 12.08,15.16 10.88,15.16 C9.68,15.16 8.9,14.34 8.9,12.54 C8.9,10.76 9.68,9.94 10.88,9.94 C12.08,9.94 12.86,10.76 12.86,12.54 L12.86,12.54 Z" id="percent"></path>
                </g>
            </g>
        </g>
    </g>
</svg>